<?xml version="1.0" standalone="no"?><!DOCTYPE svg PUBLIC "-//W3C//DTD SVG 1.1//EN" "http://www.w3.org/Graphics/SVG/1.1/DTD/svg11.dtd"><svg t="1699241413603" class="icon" viewBox="0 0 1024 1024" version="1.1" xmlns="http://www.w3.org/2000/svg" p-id="4072" xmlns:xlink="http://www.w3.org/1999/xlink" width="200" height="200"><path d="M135.168 548.992c1.472 30.08 31.488 16.128 45.12 6.72 12.864-8.896 16.64-1.472 17.792-19.072 0.768-11.584 2.112-23.168 1.408-34.752a85.184 85.184 0 0 0-56.768 14.464c-8.192 6.016-23.68 25.152-7.552 32.64" fill="#F6D2A2" p-id="4073"></path><path d="M135.168 549.568c4.416-1.792 9.024-3.008 11.968-7.296" fill="#C6B198" p-id="4074"></path><path d="M204.544 190.976C89.6 158.592 175.104 12.16 267.52 72.448l-62.912 118.528zM715.712 61.44c91.072-64 173.44 80.384 67.584 116.672L715.712 61.44z" fill="#6AD7E5" p-id="4075"></path><path d="M735.36 918.848c23.104 14.336 65.408 57.6 30.72 78.592-33.408 30.528-52.032-33.536-81.28-42.368 12.608-17.152 28.544-32.704 50.56-36.224zM322.048 967.744c-27.136 4.224-42.432 28.736-65.024 41.152-21.376 12.736-29.504-4.032-31.424-7.488-3.328-1.472-3.072 1.472-8.192-3.776-19.84-31.168 20.544-54.016 41.6-69.504 29.248-5.888 47.616 19.456 63.04 39.68z" fill="#F6D2A2" p-id="4076"></path><path d="M209.344 159.488c-15.168-9.152-26.24-21.568-17.024-41.6 8.64-18.56 24.576-16.512 39.744-7.36l-22.72 48.96z m549.952-17.408c15.168-9.152 26.304-21.568 17.024-41.6-8.576-18.496-24.576-16.512-39.744-7.36l22.72 48.96z" fill="#000000" p-id="4077"></path><path d="M863.744 545.152c-1.408 30.08-31.424 16.192-45.056 6.784-12.928-8.96-16.64-1.536-17.792-19.136-0.768-11.52-2.112-23.104-1.472-34.752 19.52-1.792 40.768 2.88 56.768 14.528 8.256 5.952 23.68 25.088 7.552 32.64" fill="#F6D2A2" p-id="4078"></path><path d="M863.744 545.728c-4.352-1.728-8.96-3.008-11.968-7.296" fill="#C6B198" p-id="4079"></path><path d="M487.936 0.64c115.2 0 223.168 16.512 279.488 127.168 50.496 124.032 32.512 257.792 40.256 388.864 6.592 112.576 21.248 242.56-30.976 346.88-54.912 109.76-192.192 137.408-305.28 133.312-88.832-3.2-196.16-32.128-246.272-113.28-58.816-95.232-30.976-236.8-26.688-342.72 5.056-125.504-33.984-251.392 7.232-374.208C248.448 39.296 363.776 10.496 487.936 0.64" fill="#6AD7E5" p-id="4080"></path><path d="M508.288 155.264c20.672 120.256 217.152 88.448 188.928-32.768-25.28-108.8-195.84-78.656-188.928 32.768M273.472 174.72c26.816 104.64 194.368 77.888 188.032-27.136C453.952 21.888 247.808 46.144 273.472 174.72M531.968 299.52c0.128 15.616 3.584 33.216 0.64 49.792-4.032 7.552-11.84 8.32-18.56 11.392a27.328 27.328 0 0 1-20.928-16.32c-2.432-18.944 0.896-37.312 1.472-56.32l37.376 11.52z" fill="#FFFFFF" p-id="4081"></path><path d="M291.392 157.632c0 10.944 5.376 21.12 14.08 26.56a26.432 26.432 0 0 0 28.352 0 31.168 31.168 0 0 0 14.144-26.56 31.168 31.168 0 0 0-14.08-26.496 26.432 26.432 0 0 0-28.352 0 31.168 31.168 0 0 0-14.144 26.496z" fill="#000000" p-id="4082"></path><path d="M325.888 164.544c0 2.816 1.28 5.376 3.328 6.784a5.824 5.824 0 0 0 6.656 0A8.128 8.128 0 0 0 339.2 164.48a8.128 8.128 0 0 0-3.328-6.72 5.824 5.824 0 0 0-6.656 0 8.128 8.128 0 0 0-3.328 6.72z" fill="#FFFFFF" p-id="4083"></path><path d="M528.96 150.016c0 10.944 5.248 21.12 13.888 26.56a25.6 25.6 0 0 0 27.84 0 31.36 31.36 0 0 0 13.888-26.56 31.36 31.36 0 0 0-13.888-26.56 25.6 25.6 0 0 0-27.84 0 31.36 31.36 0 0 0-13.888 26.56z" fill="#000000" p-id="4084"></path><path d="M562.88 156.928c0 2.816 1.216 5.376 3.2 6.784 2.048 1.344 4.608 1.344 6.592 0A8.128 8.128 0 0 0 576 156.928a8.128 8.128 0 0 0-3.328-6.72 5.696 5.696 0 0 0-6.528 0 8.128 8.128 0 0 0-3.264 6.72zM451.136 297.856c-12.352 29.888 6.912 89.728 40.32 45.568-2.368-18.944 0.96-37.312 1.536-56.32l-41.856 10.752z" fill="#FFFFFF" p-id="4085"></path><path d="M455.36 240.192c-23.04 1.984-41.792 29.376-29.824 51.008 15.808 28.672 51.2-2.56 73.216 0.384 25.344 0.512 46.08 26.816 66.432 4.736 22.656-24.512-9.728-48.384-35.008-59.072l-74.816 2.944z" fill="#F6D2A2" p-id="4086"></path><path d="M452.48 239.04c-1.728-39.872 74.24-44.864 83.2-11.52 8.96 33.28-79.488 41.024-83.2 11.52-3.008-23.616 0 0 0 0z" fill="#000000" p-id="4087"></path></svg>